<svg width="29" height="33" viewBox="0 0 29 33" fill="none" xmlns="http://www.w3.org/2000/svg">
<path d="M26.1 10.6071H22.04V7.66071C22.04 5.62897 21.2456 3.68043 19.8316 2.24377C18.4176 0.807109 16.4997 0 14.5 0C12.5003 0 10.5824 0.807109 9.16841 2.24377C7.75439 3.68043 6.96 5.62897 6.96 7.66071V10.6071H2.9C2.13087 10.6071 1.39325 10.9176 0.84939 11.4701C0.305535 12.0227 0 12.7721 0 13.5536V30.0536C0 30.835 0.305535 31.5844 0.84939 32.137C1.39325 32.6896 2.13087 33 2.9 33H26.1C26.8691 33 27.6068 32.6896 28.1506 32.137C28.6945 31.5844 29 30.835 29 30.0536V13.5536C29 12.7721 28.6945 12.0227 28.1506 11.4701C27.6068 10.9176 26.8691 10.6071 26.1 10.6071ZM10.44 7.66071C10.44 6.5667 10.8677 5.51749 11.6291 4.7439C12.3905 3.97031 13.4232 3.53571 14.5 3.53571C15.5768 3.53571 16.6095 3.97031 17.3709 4.7439C18.1323 5.51749 18.56 6.5667 18.56 7.66071V10.6071H10.44V7.66071ZM25.52 29.4643H3.48V14.1429H25.52V29.4643ZM16.82 21.8036C16.82 22.2698 16.6839 22.7255 16.429 23.1131C16.1741 23.5008 15.8118 23.8029 15.3878 23.9813C14.9639 24.1597 14.4974 24.2064 14.0474 24.1154C13.5974 24.0245 13.184 23.8 12.8595 23.4703C12.5351 23.1407 12.3141 22.7207 12.2246 22.2634C12.1351 21.8062 12.181 21.3322 12.3566 20.9015C12.5322 20.4708 12.8296 20.1027 13.2111 19.8437C13.5926 19.5847 14.0411 19.4464 14.5 19.4464C15.1153 19.4464 15.7054 19.6948 16.1405 20.1368C16.5756 20.5789 16.82 21.1784 16.82 21.8036Z" fill="#465741"/>
</svg>
