<svg width="197" height="203" viewBox="0 0 197 203" fill="none" xmlns="http://www.w3.org/2000/svg">
<path d="M94.2189 202.96C93.1975 202.918 92.3881 202.083 92.3781 201.061L92.3678 199.999C92.3537 198.412 92.3302 190.449 92.3185 182.303L92.2994 170.314C92.2966 168.525 91.501 166.831 90.1271 165.686C79.7103 157.009 69.2371 149.906 58.5945 144.301C51.7213 140.682 45.6534 138.055 38.7003 135.691C36.4192 134.914 36.0524 134.724 35.2353 133.882C31.8551 130.399 34.2632 124.527 39.0696 124.529C39.7697 124.529 41.1102 124.891 43.5387 125.736C61.1143 131.851 78.0979 141.74 95.615 156.059L95.8655 156.264C96.966 157.164 98.5455 157.172 99.6551 156.284C102.733 153.82 108.287 149.679 111.846 147.194C120.606 141.078 127.967 136.893 140.284 131.028C143.373 129.557 147.645 127.485 149.777 126.424C153.155 124.744 153.79 124.494 154.704 124.487C156.203 124.474 157.318 124.883 158.357 125.825C160.538 127.803 160.814 131.11 158.995 133.476C158.289 134.394 154.476 136.443 145.802 140.565C132.521 146.876 125.355 150.975 116.202 157.493C112.876 159.861 107.038 164.302 104.366 166.496C103.524 167.188 103.036 168.22 103.036 169.31V180.182V191.144C103.036 192.023 103.786 192.714 104.662 192.641C112.241 192.031 119.688 190.492 126.645 188.099C145.26 181.695 161.44 168.918 172.312 152.036C184.094 133.741 189.111 111.657 186.409 89.9814C181.899 53.7898 156.908 23.7798 122.94 13.7658C119.803 12.8404 113.653 11.4346 112.742 11.4338C112.497 11.4336 112.298 11.2349 112.298 10.9899V6.23685V2.08378C112.298 1.53066 112.784 1.1035 113.333 1.17461C119.112 1.95548 128.156 4.47006 134.667 7.10729C137.929 8.42911 144.423 11.6426 147.477 13.4475C164.653 23.5978 178.648 39.0854 187.2 57.4088C202.673 90.5591 199.667 129.403 179.293 159.584C172.371 169.837 163.088 179.204 153.127 185.985C149.305 188.587 146.452 190.262 141.959 192.542C130.849 198.178 119.935 201.361 107.568 202.572C104.328 202.89 97.2584 203.097 94.2189 202.96ZM79.2903 201.07C62.8582 197.648 48.0933 190.338 35.046 179.166C32.0505 176.601 25.5867 169.928 23.0333 166.764C5.37532 144.884 -2.61535 117.003 0.755821 89.034C4.32906 59.3895 20.3168 32.9641 44.5652 16.6233C53.8663 10.3555 64.1547 5.7418 74.9364 3.00428C82.541 1.07326 88.6123 0.282107 97.0755 0.11923C100.351 0.0537155 103.044 2.68588 103.053 5.96172L103.087 18.1989L103.131 34.0639C103.134 35.0774 104.252 35.6905 105.108 35.1475C109.385 32.4331 115.33 29.951 118.044 29.7467C119.143 29.6573 119.52 29.7317 120.41 30.1476C123.593 31.6488 124.629 35.3374 122.707 38.3261C121.942 39.5168 121.041 40.0427 118.017 41.0632C113.082 42.7288 108.76 45.4426 102.645 50.7158C100.141 52.8746 99.4258 53.242 97.7179 53.2452C96.0125 53.2485 94.9022 52.6849 92.8933 50.7995C89.8195 47.9136 86.215 45.4395 82.2472 43.4921C80.2072 42.4907 78.64 41.8465 74.535 40.3202C73.3822 39.891 72.4732 39.052 71.7955 37.7916C71.2907 36.8543 71.2112 36.4951 71.2155 35.1815C71.219 34.0132 71.3169 33.4636 71.6509 32.8192C72.5853 31.0004 74.1857 29.9067 76.1316 29.7573C77.1644 29.6828 77.6647 29.7873 79.9539 30.6037C83.2834 31.7884 87.6116 33.7674 90.12 35.2515C91.1876 35.8834 92.1364 36.4005 92.2287 36.4005C92.3212 36.4005 92.3964 30.5457 92.3964 23.39V11.7167C92.3964 11.001 91.7781 10.4419 91.066 10.5137C70.8398 12.5242 53.4515 20.3949 38.5574 34.2814C29.6213 42.6129 21.9847 53.6987 17.1384 65.3745C6.78345 90.3217 7.53283 118.155 19.2077 142.231C23.8221 151.747 29.2666 159.429 36.6754 166.878C43.5302 173.77 50.7857 179.049 59.3856 183.4C66.5673 187.035 73.4091 189.456 80.8377 190.994C82.1203 191.259 83.0445 192.383 83.0579 193.692L83.0871 196.561L83.1337 201.128C83.1368 201.426 82.8919 201.667 82.594 201.66C82.2938 201.652 80.8078 201.388 79.2903 201.07ZM112.332 180.678C110.621 180.236 108.449 178.974 106.974 177.568C104.323 175.039 103.793 172.738 105.167 169.718C106.769 166.194 111.87 162.978 115.215 163.383C117.28 163.634 118.458 164.467 119.691 166.552C121.158 169.032 121.786 172.181 121.297 174.595C120.731 177.388 119.538 179.04 117.241 180.209C115.765 180.96 114.053 181.124 112.332 180.678ZM78.1695 179.774C75.07 178.485 73.5419 176.229 73.3372 172.641C73.1827 169.925 73.9361 167.392 75.6768 164.778C76.8615 162.998 79.2276 162.206 81.6389 162.782C84.5428 163.476 88.094 166.045 89.2861 168.314C90.0471 169.762 90.4909 171.526 90.3396 172.501C89.9216 175.195 86.8976 178.285 83.4156 179.576C81.7652 180.188 79.3814 180.278 78.1695 179.774ZM96.0042 141.605C94.8216 141.183 94.8452 141.202 90.5522 137.289C72.716 121.03 53.7823 109.885 33.9874 103.992C32.4683 103.541 30.9098 103.003 30.5243 102.797C28.8867 101.927 27.7657 100.028 27.7585 98.111C27.7491 95.865 28.6799 94.2056 30.5417 93.1458C32.5238 92.0177 34.6069 92.3947 43.3234 95.458C61.4508 101.83 79.5772 112.834 95.7927 127.311C96.8909 128.292 98.5455 128.307 99.6619 127.348L99.9313 127.116C115.258 113.941 132.511 103.673 155.166 94.2451C158.971 92.6613 159.648 92.4408 160.702 92.4406C162.29 92.4406 164.048 93.3124 164.918 94.5312C166.601 96.8883 166.419 99.7005 164.456 101.691C163.558 102.603 163.064 102.876 160.092 104.109C136.944 113.713 121.301 123.037 105.933 136.393C104.003 138.071 101.919 139.88 101.302 140.413C99.5517 141.928 97.9342 142.291 96.0042 141.605ZM96.3363 110.119C95.2924 109.791 94.4488 109.192 91.9379 106.993C82.6006 98.8159 73.1327 92.3614 61.9473 86.5479C55.9502 83.431 51.3676 81.3769 44.9143 78.9129C40.1371 77.0891 39.431 76.6428 38.5551 74.8932C37.2243 72.2363 38.4973 68.677 41.1975 67.4632C42.8979 66.7002 44.0756 66.8254 47.5606 68.1398C65.7525 74.9998 80.6245 83.5007 94.8652 95.1793L95.7299 95.8884C96.8292 96.7899 98.4168 96.7729 99.4966 95.8481C102.273 93.4701 108.684 88.527 111.71 86.4309C121.115 79.9159 130.212 75.0929 144.606 68.9907C147.144 67.9147 149.635 66.9835 150.14 66.9218C152.203 66.67 154.537 68.038 155.483 70.0526C156.155 71.4802 156.122 73.3065 155.399 74.8232C155.094 75.4625 154.524 76.2583 154.133 76.591C153.741 76.9233 151.774 77.8935 149.76 78.746C142.243 81.93 138.466 83.6707 133.191 86.3823C121.796 92.2403 112.616 98.6195 102.743 107.541C101.238 108.9 100.256 109.623 99.5327 109.904C98.4734 110.315 97.2292 110.399 96.3363 110.119ZM96.4796 81.6713C95.2284 81.3524 94.6737 80.953 92.359 78.7122C80.4737 67.2047 70.1736 61.0507 58.4129 58.4312C55.8131 57.8515 55.2432 57.6026 54.3018 56.6329C52.4244 54.6988 52.2753 51.3941 53.9665 49.1947C54.6116 48.3557 56.1473 47.4759 57.347 47.2574C58.2395 47.095 61.6004 47.7388 64.8699 48.6985C75.3 51.762 84.8915 57.37 95.0575 66.3488C96.5161 67.637 98.7101 67.6223 100.151 66.3148L100.275 66.2023C108.982 58.3038 117.954 52.7222 127.181 49.4644C129.585 48.615 134.271 47.3994 135.776 47.2336C138.619 46.9206 141.314 49.1813 141.609 52.1283C141.821 54.2432 140.794 56.3526 139.041 57.4028C138.588 57.674 137.154 58.139 135.853 58.437C127.201 60.417 118.623 64.9474 110.336 71.9137C107.584 74.2265 107.049 74.7155 103.529 78.1304C102.01 79.6042 100.405 81.0009 99.9612 81.2339C98.9913 81.7436 97.4983 81.9321 96.4796 81.6713Z" fill="#FBFBFB"/>
</svg>
