<svg width="198" height="52" viewBox="0 0 198 52" fill="none" xmlns="http://www.w3.org/2000/svg">
<path d="M24.7355 51.7087L24.2569 51.6898L24.2495 50.9546C24.2458 50.5502 24.2421 48.5214 24.2384 46.446L24.231 42.6726L23.6619 42.2125C20.9271 40.0018 18.1776 38.1922 15.3836 36.7642C13.5791 35.8419 11.9861 35.1729 10.1607 34.5704C9.5618 34.3726 9.4655 34.324 9.25097 34.1095C8.36357 33.2223 8.99578 31.7262 10.2576 31.7266C10.4414 31.7267 10.7934 31.8188 11.4309 32.0341C16.045 33.592 20.5038 36.1116 25.1026 39.7598L25.6637 40.205L26.1633 39.8169C26.9712 39.1893 28.4293 38.1343 29.3637 37.5011C31.6634 35.9428 33.5961 34.8766 36.8296 33.3824C37.6406 33.0077 38.7622 32.4799 39.322 32.2095C40.2086 31.7814 40.3753 31.7177 40.6154 31.7159C41.0088 31.7128 41.3017 31.8169 41.5742 32.0568C42.147 32.5609 42.2194 33.4033 41.7417 34.0062C41.5564 34.2401 40.5554 34.7621 38.2782 35.8123C34.7916 37.4202 32.9101 38.4644 30.5073 40.125C29.6341 40.7284 28.1014 41.8599 27.4 42.4188L27.0506 42.6971V45.9056V49.1141L27.4774 49.08C29.4673 48.9243 31.4223 48.5324 33.2487 47.9227C38.1358 46.2911 42.3834 43.0358 45.2377 38.7347C48.3308 34.0737 49.648 28.4471 48.9388 22.9249C47.7546 13.7042 41.1937 6.05845 32.2763 3.50716C31.4524 3.27139 29.838 2.91321 29.5987 2.91302L29.4822 2.91291V1.58898V0.265079L29.7537 0.299253C31.2708 0.498199 33.6453 1.13885 35.3545 1.81074C36.2109 2.14751 37.9158 2.96622 38.7176 3.42607C43.227 6.01209 46.901 9.95793 49.1463 14.6262C53.2084 23.0721 52.4191 32.9685 47.0703 40.6577C45.2532 43.2699 42.816 45.6564 40.2009 47.3841C39.1974 48.047 38.4485 48.4737 37.2689 49.0545C34.3522 50.4905 31.4869 51.3015 28.2404 51.61C27.3897 51.6909 25.5335 51.7437 24.7355 51.7087ZM20.8162 51.2274C16.5023 50.3555 12.6261 48.4931 9.20067 45.6468C8.4143 44.9933 6.71731 43.2931 6.04694 42.4869C1.41119 36.9125 -0.686612 29.8092 0.198428 22.6835C1.13649 15.1309 5.33378 8.39837 11.6998 4.23518C14.1416 2.6383 16.8426 1.46286 19.6732 0.765411C21.6696 0.273439 23.2635 0.0718734 25.4854 0.0303766L27.0502 0L27.0654 4.6366L27.0765 9.2732L27.5939 8.95466C28.7167 8.26309 30.2774 7.63072 30.9898 7.57867C31.2784 7.55589 31.3774 7.57485 31.611 7.6808C32.4466 8.06328 32.7187 9.00303 32.2142 9.76449C32.0134 10.0678 31.7767 10.2018 30.9829 10.4618C29.6874 10.8862 28.5526 11.5776 26.9472 12.921C26.2898 13.4711 26.102 13.5646 25.6537 13.5655C25.2059 13.5663 24.9145 13.4227 24.3871 12.9424C23.5801 12.2071 22.6338 11.5768 21.5921 11.0806C21.0566 10.8255 20.6452 10.6614 19.5674 10.2725C19.2648 10.1632 19.0261 9.94942 18.8482 9.6283C18.7157 9.38949 18.6948 9.29799 18.6959 8.96332C18.6968 8.66566 18.7226 8.52563 18.8103 8.36147C19.0556 7.89808 19.4758 7.61945 19.9866 7.58137C20.2577 7.56238 20.3891 7.58901 20.99 7.79702C21.8642 8.09885 23.0004 8.60305 23.659 8.98116C23.9392 9.14214 24.1884 9.27388 24.2126 9.27388C24.2354 9.27388 24.2566 7.78225 24.2566 5.95917V2.64445L23.9072 2.67863C18.5972 3.19083 14.0322 5.19604 10.122 8.734C7.77604 10.8566 5.77116 13.681 4.49886 16.6557C1.78034 23.0116 1.97709 30.1028 5.04216 36.2367C6.25356 38.661 7.68293 40.6183 9.62793 42.5161C11.4276 44.272 13.3324 45.6169 15.5901 46.7256C17.4756 47.6515 19.2717 48.2685 21.222 48.6602L21.7988 48.776L21.814 50.0786L21.8292 51.3811L21.686 51.3776C21.6075 51.3756 21.2169 51.3081 20.8185 51.2272L20.8162 51.2274ZM29.4906 46.0321C29.0415 45.9193 28.4712 45.5979 28.0842 45.2396C27.3881 44.5953 27.249 44.0091 27.6096 43.2396C28.0303 42.3419 29.3696 41.5226 30.2476 41.6258C30.7897 41.6895 31.099 41.9018 31.4226 42.433C31.8077 43.065 31.9728 43.8671 31.8443 44.4822C31.6958 45.1937 31.3825 45.6146 30.7795 45.9125C30.3921 46.1038 29.9425 46.1456 29.4906 46.0321ZM20.522 45.8016C19.7083 45.4732 19.3071 44.8984 19.2534 43.9842C19.2128 43.2924 19.4106 42.6471 19.8676 41.981C20.1786 41.5275 20.7998 41.3258 21.4328 41.4726C22.1952 41.6495 23.1275 42.3038 23.4405 42.8819C23.6402 43.251 23.7568 43.7004 23.7169 43.9488C23.6072 44.635 22.8133 45.4222 21.8991 45.7512C21.4659 45.9072 20.8402 45.93 20.522 45.8016ZM25.2042 36.0771C24.8935 35.9697 24.9 35.9746 23.7729 34.9776C19.0903 30.8352 14.1195 27.9957 8.92278 26.4945C8.52394 26.3795 8.11483 26.2424 8.01358 26.19C7.58367 25.9683 7.2894 25.4845 7.28747 24.9961C7.285 24.4239 7.52937 24.0011 8.01814 23.7311C8.53855 23.4437 9.08539 23.5397 11.3738 24.3202C16.1328 25.9436 20.8916 28.7472 25.1486 32.4356L25.6523 32.872L26.2352 32.3858C30.2589 29.0292 34.7883 26.4132 40.7359 24.0112C41.7351 23.6077 41.9127 23.5515 42.1893 23.5514C42.6062 23.5514 43.0679 23.7735 43.2964 24.0841C43.7381 24.6846 43.6904 25.4011 43.1748 25.9082C42.9389 26.1406 42.8091 26.2101 42.0291 26.5242C35.952 28.971 31.8453 31.3467 27.8106 34.7494C27.3038 35.1768 26.7567 35.6377 26.5947 35.7736C26.1352 36.1594 25.7108 36.2521 25.2042 36.0771ZM25.2911 28.0553C25.0169 27.9718 24.7956 27.8192 24.1364 27.259C21.6851 25.1757 19.1994 23.5312 16.2629 22.0501C14.6885 21.256 13.4854 20.7327 11.7912 20.1049C10.537 19.6403 10.3517 19.5266 10.1217 19.0808C9.77229 18.4039 10.1027 17.4971 10.8154 17.1878C11.2619 16.9935 11.571 17.0253 12.4859 17.3602C17.2619 19.108 21.1663 21.2738 24.9049 24.2492L25.6307 24.8268L26.1208 24.4196C26.8497 23.8137 28.5327 22.5543 29.3271 22.0203C31.7962 20.3604 34.1845 19.1317 37.9634 17.577C38.6297 17.3029 39.2836 17.0656 39.4164 17.0499C39.9578 16.9858 40.5706 17.3343 40.8191 17.8475C40.9953 18.2113 40.987 18.6765 40.7963 19.063C40.7161 19.2259 40.5666 19.4286 40.4636 19.5134C40.3607 19.598 39.8443 19.8452 39.3157 20.0624C37.3422 20.8736 36.3505 21.3171 34.9658 22.0079C31.9743 23.5004 29.5642 25.1256 26.972 27.3986C26.5771 27.7448 26.3192 27.9291 26.1293 28.0006C25.8514 28.1054 25.5255 28.1267 25.2911 28.0553ZM25.3291 20.8077C25.0006 20.7264 24.855 20.6247 24.2473 20.0538C21.1271 17.122 18.4229 15.5541 15.3354 14.8867C14.6528 14.739 14.5032 14.6756 14.2561 14.4286C13.7632 13.9358 13.724 13.0939 14.168 12.5335C14.3374 12.3198 14.7406 12.0956 15.0556 12.0399C15.2898 11.9986 16.1722 12.1626 17.0305 12.4071C19.7688 13.1876 22.2869 14.6164 24.9558 16.9039L25.6284 17.4804L26.3256 16.8666C28.6114 14.8543 30.9669 13.4322 33.3893 12.6022C34.0204 12.3858 35.2504 12.0761 35.6456 12.0339C36.392 11.9541 37.0995 12.5301 37.177 13.2809C37.2329 13.8197 36.9628 14.3572 36.5028 14.6247C36.3839 14.6938 36.0073 14.8123 35.6659 14.8882C33.3944 15.3927 31.1424 16.5469 28.9667 18.3217C28.2444 18.911 28.1039 19.0355 27.1799 19.9056C26.7811 20.2811 26.3596 20.6369 26.2431 20.6963C25.9883 20.8261 25.5966 20.8741 25.3291 20.8077Z" fill="#465741"/>
<path d="M80.7606 12.6989L80.897 13.0885L78.1695 20.1216L74.3899 29.7263H81.9296L80.1177 25.187L82.8452 18.1539L91.5538 40.6364H85.9429L83.8778 34.9086H72.4417L70.1038 40.6364H64.6488L75.4225 12.6989H80.7606Z" fill="#465741"/>
<path d="M113.9 12.6989V40.6364H108.815L96.736 22.3231V40.6364H91.5537V12.6989H96.6191L108.562 31.1486V12.6989H113.9Z" fill="#465741"/>
<path d="M134.512 12.6989V17.9201H131.979H126.875V40.6364H121.401V17.9201H116.433H113.9V12.6989H134.512Z" fill="#465741"/>
<path d="M131.52 12.6989L139.488 34.7527L142.215 27.0573L136.994 12.6989H131.52ZM151.216 12.6989L141.436 40.2273L141.689 40.6364H146.774L156.71 12.6989H151.216Z" fill="#465741"/>
<path d="M164.869 40.1074C161.128 40.1074 158.284 38.1657 156.335 34.2822L160.68 31.6911C161.953 34.0809 163.394 35.2758 165.005 35.2758C165.849 35.2758 166.59 35.029 167.226 34.5355C167.797 34.003 168.083 33.425 168.083 32.8016C168.083 32.1911 167.882 31.5742 167.479 30.9507C167.219 30.652 166.843 30.2819 166.349 29.8403C165.856 29.3857 165.239 28.8467 164.498 28.2233C163.083 27.0413 161.907 26.0023 160.972 25.1061C160.05 24.1969 159.375 23.4241 158.946 22.7877C158.037 21.4889 157.582 20.216 157.582 18.9692C157.582 17.0989 158.284 15.4948 159.686 14.1571C161.141 12.8323 162.868 12.1699 164.869 12.1699C166.245 12.1699 167.525 12.501 168.707 13.1634C169.317 13.4622 169.947 13.8908 170.596 14.4493C171.246 15.0078 171.934 15.6897 172.662 16.495L168.823 19.8264C167.538 18.0211 166.219 17.1184 164.869 17.1184C164.115 17.1184 163.583 17.2807 163.271 17.6055C162.855 17.9302 162.648 18.3458 162.648 18.8523C162.648 19.2419 162.771 19.6445 163.018 20.0602C163.265 20.3199 163.693 20.7291 164.304 21.2876C164.927 21.8331 165.739 22.5409 166.739 23.4111C167.908 24.3853 168.798 25.1581 169.408 25.7295C169.811 26.0932 170.109 26.353 170.304 26.5088C172.122 28.2622 173.032 30.2754 173.032 32.5483C173.032 34.7823 172.285 36.6006 170.791 38.0034C169.311 39.4061 167.336 40.1074 164.869 40.1074Z" fill="#465741"/>
<path d="M198 12.0062V39.9437H192.915L180.836 21.6305V39.9437H175.654V12.0062H180.719L192.662 30.4559V12.0062H198Z" fill="#465741"/>
</svg>
