<svg width="24" height="25" viewBox="0 0 24 25" fill="none" xmlns="http://www.w3.org/2000/svg">
<path d="M12 0C13.5913 0 15.1174 0.65848 16.2426 1.83058C17.3679 3.00268 18 4.5924 18 6.25C18 7.9076 17.3679 9.49732 16.2426 10.6694C15.1174 11.8415 13.5913 12.5 12 12.5C10.4087 12.5 8.88258 11.8415 7.75736 10.6694C6.63214 9.49732 6 7.9076 6 6.25C6 4.5924 6.63214 3.00268 7.75736 1.83058C8.88258 0.65848 10.4087 0 12 0ZM12 15.625C18.63 15.625 24 18.4219 24 21.875V25H0V21.875C0 18.4219 5.37 15.625 12 15.625Z" fill="#465741"/>
</svg>
