<svg width="173" height="39" viewBox="0 0 173 39" fill="none" xmlns="http://www.w3.org/2000/svg">
<path d="M20.8968 0.925873L21.0736 1.4467L17.5361 10.8477L12.6341 23.6863H22.4128L20.0629 17.6186L23.6004 8.21757L34.8953 38.2696H27.6181L24.9396 30.6134H10.1072L7.07508 38.2696H0L13.9733 0.925873H20.8968Z" fill="#F7F7F7"/>
<path d="M63.8778 0.925873V38.2696H57.2828L41.6166 13.7904V38.2696H34.8953V0.925873H41.465L56.9543 25.5873V0.925873H63.8778Z" fill="#F7F7F7"/>
<path d="M90.6116 0.925873V7.90499H87.3267H80.7065V38.2696H73.6061V7.90499H67.1627H63.8779V0.925873H90.6116Z" fill="#F7F7F7"/>
<path d="M86.7303 0.925873L97.065 30.405L100.603 20.1186L93.8307 0.925873H86.7303ZM112.276 0.925873L99.5918 37.7227L99.9204 38.2696H106.515L119.402 0.925873H112.276Z" fill="#F7F7F7"/>
<path d="M129.983 37.5625C125.132 37.5625 121.443 34.967 118.916 29.776L124.551 26.3125C126.202 29.507 128.071 31.1042 130.16 31.1042C131.255 31.1042 132.215 30.7743 133.041 30.1146C133.782 29.4028 134.153 28.6302 134.153 27.7969C134.153 26.9809 133.892 26.1562 133.369 25.3229C133.032 24.9236 132.544 24.4288 131.904 23.8385C131.264 23.2309 130.463 22.5104 129.503 21.6771C127.667 20.0972 126.143 18.7083 124.93 17.5104C123.734 16.2951 122.858 15.2621 122.302 14.4115C121.123 12.6754 120.533 10.974 120.533 9.3073C120.533 6.80729 121.443 4.66321 123.262 2.87502C125.149 1.10418 127.389 0.21875 129.983 0.21875C131.769 0.21875 133.428 0.661438 134.961 1.54686C135.753 1.94618 136.57 2.51915 137.412 3.26568C138.254 4.01219 139.147 4.92363 140.091 6.00004L135.113 10.4532C133.445 8.03996 131.735 6.83333 129.983 6.83333C129.006 6.83333 128.316 7.05039 127.911 7.48443C127.372 7.91845 127.103 8.47398 127.103 9.15107C127.103 9.67189 127.263 10.2101 127.583 10.7656C127.903 11.1128 128.459 11.6597 129.251 12.4062C130.059 13.1354 131.112 14.0816 132.409 15.2448C133.925 16.5469 135.079 17.5799 135.871 18.3438C136.393 18.8299 136.78 19.1771 137.033 19.3854C139.392 21.7292 140.571 24.4201 140.571 27.4583C140.571 30.4444 139.602 32.875 137.665 34.75C135.745 36.625 133.184 37.5625 129.983 37.5625Z" fill="#F7F7F7"/>
<path d="M172.954 0V37.3437H166.359L150.693 12.8646V37.3437H143.972V0H150.542L166.031 24.6615V0H172.954Z" fill="#F7F7F7"/>
</svg>
