<svg width="25" height="27" viewBox="0 0 25 27" fill="none" xmlns="http://www.w3.org/2000/svg">
<path d="M24.9854 20.3957C24.7626 22.225 23.9307 23.9042 22.6453 25.1195C21.3598 26.3349 19.7087 27.0033 18.0003 27C8.07515 27 1.1311e-05 18.2789 1.1311e-05 7.5598C-0.00305122 5.71473 0.615881 3.93154 1.74121 2.54328C2.86653 1.15503 4.4213 0.256643 6.11512 0.015927C6.54344 -0.0405563 6.97719 0.0540809 7.35162 0.285711C7.72605 0.517342 8.02107 0.873543 8.19265 1.30114L10.8327 7.66645V7.68265C10.9641 8.00997 11.0183 8.36732 10.9906 8.72281C10.9629 9.07829 10.8541 9.42082 10.6739 9.71982C10.6514 9.75627 10.6277 9.79002 10.6027 9.82377L8.00015 13.1556C8.93641 15.2103 10.9264 17.3406 12.854 18.3545L15.8965 15.5586C15.9264 15.5315 15.9577 15.5062 15.9903 15.483C16.2669 15.2838 16.5852 15.1621 16.9163 15.1291C17.2474 15.0961 17.5809 15.1528 17.8866 15.294L17.9028 15.3021L23.7917 18.152C24.1883 18.3366 24.5189 18.655 24.7341 19.0594C24.9493 19.4639 25.0375 19.9327 24.9854 20.3957Z" fill="#465741"/>
</svg>
