<svg width="179" height="229" viewBox="0 0 179 229" fill="none" xmlns="http://www.w3.org/2000/svg">
<path d="M21.5365 190.926L21.7187 191.447L18.0729 200.848L13.0208 213.686H23.0989L20.6771 207.618L24.3229 198.217L35.9635 228.269H28.4635L25.7031 220.613H10.4167L7.29166 228.269H0L14.401 190.926H21.5365Z" fill="#1A5319"/>
<path d="M65.8331 190.926V228.269H59.0363L42.8904 203.79V228.269H35.9634V190.926H42.7342L58.6977 215.587V190.926H65.8331Z" fill="#1A5319"/>
<path d="M93.3851 190.926V197.905H89.9997H83.1768V228.269H75.8591V197.905H69.2184H65.833V190.926H93.3851Z" fill="#1A5319"/>
<path d="M89.3853 190.926L100.036 220.405L103.682 210.118L96.703 190.926H89.3853ZM115.713 190.926L102.64 227.723L102.979 228.269H109.776L123.057 190.926H115.713Z" fill="#1A5319"/>
<path d="M133.962 227.563C128.962 227.563 125.16 224.967 122.556 219.776L128.363 216.313C130.065 219.507 131.992 221.104 134.145 221.104C135.273 221.104 136.263 220.774 137.113 220.115C137.877 219.403 138.259 218.63 138.259 217.797C138.259 216.981 137.99 216.156 137.452 215.323C137.105 214.924 136.601 214.429 135.942 213.839C135.282 213.231 134.457 212.51 133.468 211.677C131.575 210.097 130.004 208.708 128.754 207.51C127.521 206.295 126.619 205.262 126.046 204.411C124.83 202.675 124.223 200.974 124.223 199.307C124.223 196.807 125.16 194.663 127.035 192.875C128.98 191.104 131.289 190.219 133.962 190.219C135.803 190.219 137.513 190.661 139.093 191.547C139.909 191.946 140.751 192.519 141.619 193.266C142.487 194.012 143.407 194.924 144.379 196L139.249 200.453C137.53 198.04 135.768 196.833 133.962 196.833C132.955 196.833 132.244 197.05 131.827 197.484C131.271 197.918 130.994 198.474 130.994 199.151C130.994 199.672 131.159 200.21 131.488 200.766C131.818 201.113 132.391 201.66 133.207 202.406C134.041 203.135 135.126 204.082 136.462 205.245C138.025 206.547 139.214 207.58 140.03 208.344C140.568 208.83 140.968 209.177 141.228 209.385C143.659 211.729 144.874 214.42 144.874 217.458C144.874 220.444 143.876 222.875 141.879 224.75C139.9 226.625 137.261 227.563 133.962 227.563Z" fill="#1A5319"/>
<path d="M178.249 190V227.344H171.452L155.306 202.865V227.344H148.379V190H155.15L171.113 214.661V190H178.249Z" fill="#1A5319"/>
<path d="M85.8141 158.521L84.3472 158.463L84.3245 156.209C84.3132 154.97 84.3019 148.75 84.2905 142.388L84.2679 130.82L82.5235 129.409C74.1415 122.632 65.7141 117.084 57.1506 112.707C51.6198 109.879 46.7374 107.828 41.1425 105.981C39.3069 105.375 39.0117 105.226 38.3542 104.568C35.6343 101.848 37.572 97.2618 41.4396 97.263C42.0029 97.2632 43.0816 97.5458 45.0357 98.2057C59.178 102.982 72.8442 110.706 86.9393 121.89L88.6592 123.255L90.1903 122.065C92.6666 120.141 97.1357 116.907 99.9995 114.966C107.048 110.188 112.972 106.92 122.882 102.339C125.368 101.19 128.806 99.5722 130.522 98.7435C133.239 97.4309 133.75 97.2357 134.486 97.2301C135.692 97.2207 136.59 97.5398 137.425 98.2753C139.18 99.8206 139.402 102.403 137.938 104.251C137.37 104.968 134.302 106.569 127.322 109.788C116.636 114.718 110.869 117.919 103.505 123.01C100.828 124.859 96.1306 128.328 93.9807 130.042L92.9099 130.895V140.731V150.567L94.2182 150.462C100.317 149.985 106.309 148.784 111.907 146.915C126.886 141.913 139.905 131.933 148.653 118.747C158.134 104.458 162.171 87.2093 159.997 70.2799C156.368 42.0124 136.259 18.5731 108.927 10.7518C106.402 10.029 101.453 8.93092 100.72 8.93034L100.363 8.93V4.87126V0.812642L101.195 0.917409C105.845 1.52731 113.123 3.49132 118.361 5.55112C120.986 6.58353 126.212 9.09343 128.669 10.5032C142.49 18.431 153.751 30.5276 160.633 44.839C173.083 70.7311 170.664 101.07 154.27 124.643C148.701 132.651 141.231 139.967 133.216 145.263C130.14 147.296 127.844 148.604 124.229 150.384C115.289 154.787 106.507 157.273 96.5566 158.219C93.9492 158.467 88.2599 158.629 85.8141 158.521ZM73.8016 157.046C60.5794 154.373 48.6988 148.663 38.2 139.938C35.7898 137.934 30.5885 132.722 28.5338 130.251C14.3253 113.161 7.89554 91.3849 10.6082 69.5399C13.4833 46.3861 26.348 25.7466 45.8599 12.9836C53.3439 8.08814 61.6226 4.48463 70.2981 2.34649C76.4173 0.838273 81.3026 0.220339 88.1127 0.0931243L92.9088 0L92.9553 14.2142L92.9894 28.4285L94.5752 27.4519C98.0166 25.3318 102.8 23.3932 104.984 23.2336C105.868 23.1638 106.171 23.2219 106.888 23.5467C109.449 24.7193 110.283 27.6002 108.736 29.9346C108.121 30.8646 107.395 31.2753 104.962 32.0724C100.992 33.3733 97.5137 35.4929 92.5929 39.6115C90.5782 41.2977 90.0026 41.5846 88.6284 41.5872C87.2561 41.5897 86.3627 41.1495 84.7463 39.6769C82.2729 37.4229 79.3724 35.4905 76.1798 33.9695C74.5383 33.1873 73.2773 32.6841 69.9741 31.4921C69.0464 31.1568 68.315 30.5016 67.7697 29.5171C67.3635 28.785 67.2995 28.5045 67.3029 27.4785C67.3057 26.566 67.3846 26.1367 67.6533 25.6334C68.4052 24.2128 69.6931 23.3586 71.2588 23.2419C72.0898 23.1837 72.4923 23.2653 74.3344 23.903C77.0135 24.8283 80.4962 26.374 82.5147 27.5332C83.3737 28.0267 84.1372 28.4306 84.2115 28.4306C84.2814 28.4306 84.3464 23.8577 84.3464 18.2688V8.10699L83.2756 8.21176C67.0003 9.78202 53.0087 15.9293 41.0239 26.7755C33.8335 33.2828 27.6886 41.9414 23.789 51.0607C15.4567 70.5457 16.0598 92.285 25.4542 111.089C29.1671 118.522 33.5481 124.522 39.5096 130.34C45.0254 135.723 50.8637 139.846 57.7836 143.245C63.5625 146.083 69.0678 147.975 75.0454 149.176L76.8134 149.531L76.8598 153.524L76.9063 157.517L76.4675 157.506C76.2268 157.5 75.0296 157.293 73.8086 157.045L73.8016 157.046ZM100.389 141.119C99.0119 140.773 97.2641 139.788 96.0779 138.689C93.9445 136.714 93.5182 134.917 94.6233 132.558C95.9129 129.806 100.018 127.294 102.709 127.61C104.37 127.806 105.318 128.457 106.31 130.085C107.491 132.023 107.996 134.482 107.603 136.367C107.148 138.549 106.187 139.839 104.339 140.752C103.152 141.339 101.774 141.467 100.389 141.119ZM72.8998 140.412C70.4057 139.405 69.1761 137.643 69.0114 134.841C68.8871 132.72 69.4933 130.742 70.894 128.699C71.8472 127.309 73.7512 126.691 75.6914 127.141C78.0282 127.683 80.8857 129.689 81.8449 131.461C82.4571 132.593 82.8144 133.971 82.6923 134.732C82.3559 136.836 79.9226 139.249 77.1207 140.258C75.7927 140.736 73.875 140.806 72.8998 140.412ZM87.2507 110.6C86.2986 110.271 86.3183 110.286 82.8637 107.229C68.5116 94.5303 53.2763 85.8253 37.3483 81.2232C36.1258 80.8705 34.8719 80.4504 34.5616 80.2898C33.2439 79.61 32.342 78.1268 32.3361 76.6295C32.3285 74.8753 33.0775 73.5792 34.5756 72.7514C36.1706 71.8704 37.8467 72.1648 44.8605 74.5574C59.447 79.5342 74.0326 88.1291 87.0805 99.4365L88.6243 100.774L90.4107 99.2839C102.743 88.9936 116.626 80.974 134.855 73.6101C137.918 72.3731 138.462 72.2008 139.31 72.2007C140.588 72.2007 142.003 72.8816 142.703 73.8336C144.057 75.6745 143.911 77.871 142.33 79.4259C141.608 80.1382 141.21 80.3512 138.819 81.3142C120.193 88.8153 107.606 96.0983 95.2394 106.53C93.6861 107.84 92.009 109.253 91.5127 109.67C90.1044 110.852 88.8036 111.137 87.2507 110.6ZM87.5171 86.0081C86.6767 85.7521 85.9983 85.2842 83.9779 83.5669C76.4646 77.1801 68.8462 72.1388 59.8458 67.5982C55.02 65.1637 51.3327 63.5593 46.14 61.6349C42.2958 60.2104 41.7278 59.8618 41.0228 58.4953C39.952 56.4201 40.9646 53.6401 43.1491 52.6921C44.5175 52.0961 45.4651 52.1939 48.2693 53.2205C62.9076 58.5785 74.8745 65.2182 86.3334 74.3397L88.5581 76.1107L90.0601 74.8621C92.2943 73.0047 97.4526 69.144 99.8875 67.5068C107.455 62.4182 114.775 58.6513 126.358 53.8851C128.4 53.0447 130.404 52.3174 130.811 52.2692C132.471 52.0725 134.349 53.141 135.11 54.7145C135.65 55.8296 135.625 57.256 135.04 58.4406C134.795 58.9399 134.336 59.5615 134.021 59.8214C133.705 60.0809 132.123 60.8386 130.503 61.5045C124.454 63.9914 121.414 65.351 117.17 67.4689C108.001 72.0443 100.614 77.0267 92.6692 83.9948C91.4586 85.0563 90.6683 85.6212 90.0863 85.8403C89.2343 86.1615 88.2356 86.2269 87.5171 86.0081ZM87.6335 63.7893C86.6267 63.5403 86.1804 63.2283 84.318 61.4781C74.7543 52.4901 66.4661 47.6836 57.0029 45.6376C54.9109 45.1849 54.4523 44.9905 53.6948 44.2331C52.1841 42.7225 52.0641 40.1413 53.425 38.4235C53.9441 37.7682 55.1798 37.081 56.1452 36.9104C56.8633 36.7835 59.5677 37.2863 62.1985 38.0359C70.5913 40.4287 78.3092 44.8088 86.4893 51.8217L88.5509 53.589L90.6879 51.7073C97.6938 45.5381 104.913 41.1786 112.338 38.6342C114.272 37.9707 118.042 37.0213 119.253 36.8918C121.541 36.6473 123.71 38.413 123.947 40.7148C124.119 42.3666 123.291 44.0142 121.881 44.8344C121.517 45.0462 120.362 45.4094 119.316 45.6422C112.354 47.1887 105.451 50.7271 98.7829 56.1682C96.569 57.9746 96.1382 58.3565 93.3061 61.0237C92.0839 62.1748 90.7919 63.2657 90.4351 63.4477C89.6541 63.8458 88.4533 63.993 87.6335 63.7893Z" fill="#1A5319"/>
</svg>
