<svg width="261" height="62" viewBox="0 0 261 62" fill="none" xmlns="http://www.w3.org/2000/svg">
<path d="M29.6527 61.9877L29.0789 61.9649L29.0701 61.0836C29.0656 60.5989 29.0582 58.1667 29.0545 55.6787L29.0471 51.1552L28.3649 50.6037C25.0865 47.9535 21.7903 45.7842 18.4409 44.0724C16.2778 42.9668 14.3681 42.1647 12.1798 41.4425C11.4619 41.2054 11.3464 41.1471 11.0893 40.8899C10.0255 39.8264 10.7833 38.0329 12.296 38.0334C12.5164 38.0335 12.9382 38.144 13.7025 38.402C19.2339 40.2696 24.579 43.2901 30.092 47.6635L30.7647 48.1971L31.3635 47.7319C32.3322 46.9796 34.08 45.7148 35.2002 44.9558C37.9571 43.0877 40.2739 41.8096 44.1502 40.0184C45.1224 39.5691 46.467 38.9364 47.1381 38.6123C48.2009 38.099 48.4008 38.0227 48.6887 38.0205C49.1602 38.0168 49.5114 38.1416 49.8381 38.4292C50.5247 39.0335 50.6115 40.0433 50.039 40.7661C49.8168 41.0465 48.6168 41.6723 45.8869 42.9313C41.7073 44.8588 39.4517 46.1106 36.5712 48.1012C35.5244 48.8246 33.6871 50.181 32.8462 50.8511L32.4275 51.1847V55.031V58.8773L32.9392 58.8363C35.3247 58.6497 37.6683 58.18 39.8578 57.449C45.7164 55.4931 50.8084 51.5907 54.2301 46.4346C57.9381 40.847 59.5171 34.102 58.6669 27.482C57.2472 16.4284 49.3821 7.26278 38.6919 4.20434C37.7043 3.9217 35.769 3.49233 35.4821 3.4921L35.3426 3.49196V1.90485V0.317781L35.6682 0.358749C37.4869 0.597241 40.3334 1.36524 42.3824 2.1707C43.409 2.57441 45.4528 3.55587 46.414 4.10713C51.8198 7.20722 56.2242 11.9374 58.9158 17.5337C63.7854 27.6584 62.8393 39.5222 56.4272 48.7399C54.2488 51.8714 51.3271 54.7322 48.1922 56.8033C46.9893 57.598 46.0914 58.1096 44.6773 58.8058C41.1807 60.5273 37.7459 61.4995 33.854 61.8693C32.8342 61.9663 30.6092 62.0295 29.6527 61.9877ZM24.9543 61.4107C19.7828 60.3654 15.136 58.1328 11.0297 54.7207C10.087 53.9373 8.05268 51.8991 7.24905 50.9327C1.69173 44.2501 -0.823104 35.7348 0.237873 27.1927C1.36244 18.1387 6.39411 10.0678 14.0256 5.07707C16.9528 3.16276 20.1908 1.75365 23.584 0.917563C25.9774 0.327795 27.8881 0.0861607 30.5517 0.036415L32.4276 0L32.4436 5.55829L32.4595 11.1166L33.0798 10.7347C34.4258 9.90567 36.2968 9.1476 37.1508 9.0852C37.4967 9.05788 37.6154 9.08062 37.8954 9.20763C38.8972 9.66614 39.2233 10.7927 38.6186 11.7055C38.3777 12.0692 38.094 12.2298 37.1425 12.5415C35.5894 13.0502 34.2291 13.879 32.3045 15.4895C31.5165 16.1489 31.2914 16.2611 30.7539 16.2621C30.2171 16.2631 29.8677 16.091 29.2354 15.5151C28.2681 14.6337 27.1336 13.8781 25.8849 13.2833C25.2429 12.9774 24.7496 12.7807 23.4577 12.3145C23.0949 12.1835 22.8088 11.9272 22.5955 11.5423C22.4367 11.256 22.4116 11.1463 22.413 10.7451C22.4141 10.3883 22.4449 10.2204 22.55 10.0236C22.8441 9.46811 23.3478 9.13408 23.9602 9.08843C24.2853 9.06567 24.4427 9.09759 25.1631 9.34695C26.211 9.70878 27.5732 10.3132 28.3626 10.7665C28.6986 10.9595 28.9972 11.1174 29.0263 11.1174C29.0554 11.1174 29.0791 9.32924 29.0791 7.14376V3.17013L28.6604 3.2111C22.2947 3.82512 16.8223 6.22898 12.1348 10.4702C9.32243 13.0148 6.91905 16.4006 5.39381 19.9666C2.13489 27.5859 2.37074 36.0868 6.04506 43.44C7.49731 46.3463 9.21081 48.6926 11.5425 50.9676C13.6999 53.0726 15.9833 54.6848 18.6899 56.0139C20.9501 57.1239 23.1034 57.8635 25.4413 58.3331L26.1329 58.472L26.1492 60.0334L26.1657 61.5949L25.994 61.5906C25.8996 61.5883 25.4319 61.5076 24.9543 61.4107ZM35.3531 55.1826C34.8146 55.0474 34.131 54.6621 33.667 54.2326C32.8326 53.4602 32.6659 52.7575 33.0982 51.835C33.6025 50.7588 35.208 49.7766 36.2606 49.9003C36.9104 49.9768 37.2813 50.2312 37.6691 50.868C38.1308 51.6257 38.3287 52.5872 38.1747 53.3247C37.9966 54.1776 37.621 54.6821 36.8982 55.0392C36.4337 55.2686 35.8948 55.3187 35.3531 55.1826ZM24.6016 54.9063C23.6261 54.5126 23.1452 53.8236 23.0808 52.7276C23.0321 51.8982 23.2692 51.1247 23.8171 50.3262C24.1899 49.7826 24.9346 49.5407 25.6935 49.7167C26.6074 49.9288 27.725 50.7132 28.1002 51.4062C28.3397 51.8486 28.4794 52.3874 28.4318 52.6851C28.3002 53.5078 27.3485 54.4514 26.2526 54.8459C25.7332 55.0329 24.983 55.0601 24.6016 54.9063ZM30.2145 43.2487C29.8423 43.1199 29.8497 43.1258 28.4987 41.9306C22.8852 36.9648 16.9264 33.5608 10.6965 31.7612C10.2184 31.6233 9.72795 31.459 9.60663 31.3962C9.09125 31.1304 8.73845 30.5504 8.73618 29.9649C8.73322 29.279 9.02618 28.7722 9.61211 28.4485C10.2359 28.1039 10.8915 28.2191 13.6348 29.1547C19.3398 31.1008 25.0446 34.4617 30.1479 38.8833L30.7518 39.4065L31.4505 38.8236C36.274 34.7997 41.7039 31.6638 48.8338 28.7842C50.0316 28.3005 50.2445 28.2331 50.5761 28.2331C51.076 28.2331 51.6294 28.4994 51.9033 28.8716C52.4328 29.5915 52.3757 30.4504 51.7578 31.0584C51.4749 31.337 51.3195 31.4202 50.3844 31.7968C43.0993 34.73 38.1761 37.578 33.3394 41.657C32.7319 42.1694 32.076 42.722 31.8818 42.8849C31.331 43.3473 30.8219 43.4585 30.2145 43.2487ZM30.319 33.6323C29.9905 33.5322 29.725 33.3492 28.9348 32.6777C25.9961 30.1802 23.0164 28.2089 19.4961 26.4333C17.6087 25.4814 16.1664 24.854 14.1355 24.1015C12.632 23.5444 12.4098 23.4081 12.1341 22.8738C11.7153 22.0623 12.1159 20.9752 12.9657 20.6045C13.5009 20.3715 13.8715 20.4097 14.9683 20.8112C20.6937 22.9063 25.3742 25.5027 29.8561 29.0696L30.7262 29.762L31.3136 29.2738C32.1875 28.5475 34.205 27.0378 35.1574 26.3976C38.1173 24.4078 40.9803 22.9348 45.5104 21.071C46.3093 20.7424 47.0931 20.458 47.2522 20.4392C47.9014 20.3623 48.6359 20.7801 48.9339 21.3954C49.1451 21.8314 49.135 22.3892 48.9074 22.8524C48.8113 23.0477 48.6321 23.2907 48.5088 23.3923C48.3856 23.4938 47.7664 23.7901 47.1327 24.0505C44.7668 25.023 43.5781 25.5546 41.918 26.3828C38.3318 28.1719 35.4426 30.1202 32.3352 32.845C31.8617 33.2601 31.5526 33.481 31.325 33.5667C30.9916 33.6923 30.6 33.7179 30.319 33.6323ZM30.3641 24.944C29.9703 24.8466 29.7958 24.7246 29.0673 24.0402C25.3267 20.5256 22.0851 18.646 18.3838 17.846C17.5656 17.6689 17.3862 17.5929 17.0899 17.2968C16.4991 16.706 16.4521 15.6967 16.9844 15.025C17.1874 14.7687 17.6707 14.5 18.0483 14.4333C18.3292 14.3837 19.3869 14.5803 20.4159 14.8734C23.6985 15.8091 26.7171 17.5219 29.9166 20.2642L30.7229 20.9553L31.5587 20.2194C34.2989 17.8071 37.1227 16.1023 40.0266 15.1074C40.7832 14.8479 42.2577 14.4767 42.7314 14.426C43.6263 14.3304 44.4744 15.0209 44.5673 15.921C44.6341 16.5669 44.3107 17.2111 43.7591 17.5319C43.6166 17.6147 43.1651 17.7567 42.7557 17.8478C40.0327 18.4525 37.333 19.8362 34.7249 21.9638C33.859 22.6702 33.6905 22.8195 32.5828 23.8625C32.1047 24.3126 31.5994 24.7392 31.4599 24.8104C31.1546 24.966 30.6847 25.0236 30.3641 24.944Z" fill="#FBFBFB"/>
<path d="M103.536 11.9259L103.719 12.4467L100.073 21.8477L95.0208 34.6863H105.099L102.677 28.6186L106.323 19.2176L117.964 49.2696H110.464L107.703 41.6134H92.4167L89.2917 49.2696H82L96.401 11.9259H103.536Z" fill="#F7F7F7"/>
<path d="M147.833 11.9259V49.2696H141.036L124.89 24.7905V49.2696H117.963V11.9259H124.734L140.698 36.5874V11.9259H147.833Z" fill="#F7F7F7"/>
<path d="M175.386 11.9259V18.905H172H165.177V49.2696H157.86V18.905H151.219H147.833V11.9259H175.386Z" fill="#F7F7F7"/>
<path d="M171.385 11.9259L182.036 41.405L185.682 31.1186L178.703 11.9259H171.385ZM197.713 11.9259L184.64 48.7228L184.979 49.2696H191.776L205.057 11.9259H197.713Z" fill="#F7F7F7"/>
<path d="M215.962 48.5625C210.962 48.5625 207.16 45.967 204.556 40.776L210.363 37.3125C212.065 40.507 213.992 42.1042 216.145 42.1042C217.273 42.1042 218.263 41.7743 219.113 41.1146C219.877 40.4028 220.259 39.6302 220.259 38.7969C220.259 37.9809 219.99 37.1562 219.452 36.3229C219.105 35.9236 218.601 35.4288 217.942 34.8385C217.282 34.2309 216.457 33.5104 215.468 32.6771C213.575 31.0972 212.004 29.7083 210.754 28.5104C209.521 27.2951 208.619 26.2621 208.046 25.4115C206.83 23.6754 206.223 21.974 206.223 20.3073C206.223 17.8073 207.16 15.6632 209.035 13.875C210.98 12.1042 213.289 11.2188 215.962 11.2188C217.803 11.2188 219.513 11.6614 221.093 12.5469C221.909 12.9462 222.751 13.5192 223.619 14.2657C224.487 15.0122 225.407 15.9236 226.379 17L221.249 21.4532C219.53 19.04 217.768 17.8333 215.962 17.8333C214.955 17.8333 214.244 18.0504 213.827 18.4844C213.271 18.9184 212.994 19.474 212.994 20.1511C212.994 20.6719 213.159 21.2101 213.488 21.7656C213.818 22.1128 214.391 22.6597 215.207 23.4062C216.041 24.1354 217.126 25.0816 218.462 26.2448C220.025 27.5469 221.214 28.5799 222.03 29.3438C222.568 29.8299 222.968 30.1771 223.228 30.3854C225.659 32.7292 226.874 35.4201 226.874 38.4583C226.874 41.4444 225.876 43.875 223.879 45.75C221.9 47.625 219.261 48.5625 215.962 48.5625Z" fill="#F7F7F7"/>
<path d="M260.249 11V48.3437H253.452L237.306 23.8646V48.3437H230.379V11H237.15L253.114 35.6615V11H260.249Z" fill="#F7F7F7"/>
</svg>
