<svg width="116" height="116" viewBox="0 0 116 116" fill="none" xmlns="http://www.w3.org/2000/svg">
<path d="M55.4789 115.977L54.4055 115.934L54.3889 114.285C54.3806 113.378 54.3723 108.828 54.364 104.173L54.3474 95.7098L53.0709 94.6779C46.9372 89.7195 40.7703 85.6607 34.5036 82.458C30.4564 80.3895 26.8835 78.8888 22.7893 77.5376C21.4461 77.0939 21.2301 76.9849 20.7489 76.5038C18.7586 74.5139 20.1765 71.1583 23.0067 71.1592C23.419 71.1594 24.2083 71.3661 25.6383 71.849C35.9873 75.3432 45.9878 80.9943 56.3023 89.1768L57.5609 90.1752L58.6813 89.3049C60.4934 87.8972 63.7638 85.5309 65.8595 84.1108C71.0176 80.6157 75.3523 78.2244 82.6046 74.8731C84.4236 74.0326 86.9392 72.8487 88.1948 72.2424C90.1834 71.2821 90.5574 71.1393 91.0959 71.1352C91.9782 71.1283 92.6351 71.3617 93.2464 71.8999C94.5311 73.0304 94.6935 74.9198 93.622 76.2721C93.2064 76.7966 90.9613 77.9676 85.8537 80.3231C78.0337 83.9294 73.8137 86.2714 68.4244 89.9958C66.4659 91.3493 63.0283 93.887 61.4551 95.1407L60.6715 95.7649V102.961V110.158L61.6288 110.081C66.0919 109.732 70.4768 108.853 74.5732 107.485C85.5344 103.826 95.0613 96.5245 101.463 86.8776C108.401 76.4235 111.355 63.8038 109.764 51.418C107.108 30.737 92.393 13.5884 72.3921 7.86618C70.5443 7.33737 66.9234 6.53401 66.3867 6.53359L66.1253 6.53333V3.5639V0.594543L66.7343 0.671192C70.137 1.1174 75.4627 2.55431 79.2963 4.06129C81.217 4.81662 85.0408 6.6529 86.8392 7.6843C96.9532 13.4845 105.194 22.3345 110.23 32.805C119.34 51.748 117.57 73.9447 105.573 91.1907C101.498 97.0496 96.0315 102.402 90.1661 106.277C87.9155 107.764 86.2356 108.721 83.59 110.024C77.048 113.245 70.6216 115.064 63.34 115.756C61.432 115.937 57.2687 116.055 55.4789 115.977ZM46.6885 114.897C37.0128 112.942 28.3188 108.765 20.6361 102.381C18.8723 100.915 15.0662 97.1015 13.5626 95.2935C3.16514 82.7906 -1.53999 66.8587 0.445051 50.8766C2.54902 33.9369 11.9631 18.8366 26.2414 9.49904C31.718 5.91742 37.7761 3.28103 44.1247 1.71673C48.6025 0.613294 52.1775 0.161204 57.1609 0.0681313L60.6707 0L60.7047 10.3994L60.7296 20.7987L61.8901 20.0843C64.4084 18.5332 67.9088 17.1149 69.5067 16.9981C70.154 16.947 70.3759 16.9895 70.9 17.2272C72.7742 18.085 73.3844 20.1928 72.253 21.9007C71.8024 22.581 71.2715 22.8816 69.4912 23.4647C66.5854 24.4165 64.0404 25.9672 60.4395 28.9804C58.9651 30.2141 58.5439 30.424 57.5384 30.4259C56.5341 30.4277 55.8804 30.1057 54.6975 29.0283C52.8876 27.3792 50.765 25.9654 48.4287 24.8526C47.2276 24.2804 46.3048 23.9123 43.8876 23.0401C43.2087 22.7949 42.6735 22.3154 42.2745 21.5952C41.9772 21.0596 41.9304 20.8544 41.9329 20.1037C41.9349 19.4361 41.9927 19.122 42.1893 18.7538C42.7395 17.7145 43.6819 17.0896 44.8277 17.0042C45.4358 16.9616 45.7304 17.0213 47.0783 17.4878C49.0389 18.1648 51.5874 19.2957 53.0645 20.1437C53.6931 20.5048 54.2518 20.8003 54.3062 20.8003C54.3573 20.8003 54.4049 17.4547 54.4049 13.3657V5.93121L53.6213 6.00786C41.7114 7.15669 31.4727 11.6541 22.7026 19.5894C17.4408 24.3502 12.9441 30.685 10.0904 37.3569C3.9931 51.6124 4.43438 67.5172 11.309 81.2749C14.026 86.7124 17.232 91.1022 21.5944 95.3588C25.6308 99.2972 29.903 102.314 34.9668 104.8C39.1957 106.877 43.2244 108.261 47.5986 109.139L48.8924 109.399L48.9264 112.321L48.9604 115.242L48.6393 115.234C48.4631 115.23 47.5871 115.078 46.6936 114.897L46.6885 114.897ZM66.1442 103.245C65.1367 102.992 63.8577 102.271 62.9897 101.467C61.4285 100.022 61.1166 98.7075 61.9253 96.9817C62.8689 94.9681 65.8727 93.1305 67.8421 93.3619C69.0579 93.505 69.7517 93.981 70.4774 95.1724C71.3412 96.59 71.7114 98.3889 71.4232 99.7687C71.0902 101.365 70.3874 102.308 69.035 102.977C68.166 103.406 67.1577 103.499 66.1442 103.245ZM46.0285 102.728C44.2034 101.991 43.3036 100.702 43.1831 98.6517C43.0921 97.0999 43.5358 95.6527 44.5607 94.1586C45.2583 93.1416 46.6515 92.6891 48.0714 93.0183C49.7813 93.4151 51.8724 94.8827 52.5744 96.1794C53.0224 97.0071 53.2838 98.0151 53.1944 98.5722C52.9483 100.111 51.1676 101.877 49.1173 102.615C48.1455 102.965 46.7422 103.016 46.0285 102.728ZM56.5301 80.9169C55.8334 80.676 55.8479 80.687 53.3199 78.4508C42.8174 69.1599 31.6685 62.7912 20.0128 59.4243C19.1182 59.1662 18.2007 58.8588 17.9736 58.7413C17.0093 58.244 16.3493 57.1589 16.345 56.0635C16.3394 54.78 16.8875 53.8318 17.9838 53.2262C19.151 52.5816 20.3775 52.797 25.5101 54.5474C36.1841 58.1886 46.8575 64.4768 56.4056 72.7494L57.5354 73.7282L58.8426 72.6377C67.8673 65.1092 78.0263 59.2419 91.3661 53.8544C93.6071 52.9493 94.0054 52.8233 94.6258 52.8232C95.561 52.8232 96.5966 53.3214 97.1089 54.0179C98.0996 55.3648 97.9927 56.9717 96.8362 58.1093C96.3073 58.6305 96.016 58.7863 94.2666 59.4909C80.6364 64.9787 71.4254 70.3071 62.3761 77.939C61.2394 78.8977 60.0122 79.9314 59.649 80.2363C58.6184 81.1015 57.6665 81.3094 56.5301 80.9169ZM56.7251 62.925C56.1102 62.7376 55.6137 62.3953 54.1352 61.1389C48.6371 56.4662 43.0622 52.7779 36.4759 49.4559C32.9446 47.6748 30.2463 46.5011 26.4463 45.0931C23.6333 44.0509 23.2177 43.7959 22.7018 42.7962C21.9182 41.2779 22.6592 39.244 24.2577 38.5504C25.2591 38.1144 25.9525 38.1859 28.0046 38.937C38.7165 42.857 47.4736 47.7147 55.8589 54.3882L57.4869 55.6838L58.586 54.7704C60.221 53.4115 63.9957 50.5869 65.7775 49.3891C71.3154 45.6662 76.672 42.9103 85.1476 39.4232C86.6422 38.8084 88.1087 38.2763 88.4065 38.241C89.621 38.0971 90.9953 38.8788 91.5527 40.0301C91.9479 40.8458 91.9292 41.8894 91.5015 42.7561C91.3218 43.1214 90.9863 43.5762 90.7554 43.7663C90.5245 43.9562 89.3663 44.5106 88.1808 44.9977C83.7544 46.8172 81.5302 47.8119 78.4244 49.3613C71.7147 52.7088 66.3091 56.354 60.4953 61.452C59.6094 62.2286 59.0311 62.6419 58.6052 62.8022C57.9817 63.0372 57.2509 63.0851 56.7251 62.925ZM56.8103 46.6693C56.0736 46.4871 55.7469 46.2589 54.3841 44.9784C47.3856 38.4027 41.3205 34.8861 34.3956 33.3893C32.8647 33.058 32.5291 32.9158 31.9748 32.3617C30.8693 31.2565 30.7815 29.3681 31.7773 28.1113C32.1572 27.6318 33.0615 27.1291 33.7679 27.0042C34.2934 26.9114 36.2724 27.2793 38.1976 27.8277C44.3392 29.5783 49.987 32.7829 55.973 37.9136L57.4816 39.2066L59.0454 37.8299C64.1722 33.3164 69.4553 30.127 74.8885 28.2654C76.304 27.78 79.0628 27.0854 79.949 26.9906C81.6233 26.8118 83.2101 28.1036 83.3839 29.7876C83.5092 30.9961 82.9035 32.2015 81.8717 32.8016C81.6051 32.9566 80.7604 33.2223 79.9945 33.3926C74.9 34.524 69.8489 37.1128 64.9692 41.0936C63.3491 42.4152 63.0338 42.6946 60.9614 44.646C60.067 45.4882 59.1216 46.2862 58.8604 46.4194C58.2889 46.7106 57.4102 46.8184 56.8103 46.6693Z" fill="#3E3E3E"/>
</svg>
