<svg width="55" height="55" viewBox="0 0 55 55" fill="none" xmlns="http://www.w3.org/2000/svg">
<path d="M26.3047 54.9891L25.7957 54.9689L25.7878 54.187C25.7839 53.757 25.78 51.5994 25.776 49.3924L25.7682 45.3796L25.1629 44.8904C22.2547 42.5394 19.3307 40.615 16.3595 39.0964C14.4405 38.1157 12.7465 37.4041 10.8053 36.7635C10.1684 36.5531 10.066 36.5014 9.83783 36.2733C8.89414 35.3298 9.56645 33.7389 10.9084 33.7393C11.1038 33.7393 11.4781 33.8374 12.1561 34.0663C17.0629 35.7231 21.8046 38.4025 26.6951 42.2821L27.2918 42.7554L27.823 42.3428C28.6822 41.6754 30.2328 40.5534 31.2265 39.8801C33.6721 38.223 35.7274 37.0892 39.166 35.5001C40.0284 35.1016 41.2212 34.5403 41.8165 34.2528C42.7594 33.7975 42.9367 33.7298 43.192 33.7278C43.6104 33.7247 43.9218 33.8352 44.2116 34.0904C44.8208 34.6265 44.8978 35.5223 44.3897 36.1635C44.1927 36.4122 43.1282 36.9673 40.7065 38.0842C36.9987 39.7941 34.9979 40.9045 32.4426 42.6704C31.514 43.3121 29.8841 44.5153 29.1382 45.1098L28.7666 45.4058V48.8178V52.2299L29.2206 52.1935C31.3367 52.0284 33.4157 51.6113 35.358 50.9628C40.5551 49.2277 45.0722 45.7659 48.1075 41.192C51.3969 36.2353 52.7976 30.2518 52.0434 24.3792C50.7841 14.5736 43.807 6.44275 34.3238 3.72962C33.4477 3.47889 31.7309 3.09803 31.4764 3.09778L31.3525 3.09766V1.68979V0.281865L31.6413 0.318208C33.2546 0.529774 35.7797 1.21111 37.5974 1.92559C38.5081 2.28371 40.3211 3.15436 41.1738 3.64339C45.9692 6.39346 49.8763 10.5897 52.264 15.5541C56.5838 24.5357 55.7445 35.06 50.0564 43.237C48.124 46.0149 45.5322 48.5528 42.7512 50.3901C41.6841 51.095 40.8876 51.5488 39.6332 52.1664C36.5314 53.6935 33.4844 54.556 30.0319 54.8841C29.1272 54.9701 27.1533 55.0262 26.3047 54.9891ZM22.1368 54.4773C17.5491 53.55 13.427 51.5695 9.78435 48.5426C8.94809 47.8477 7.14345 46.0395 6.43055 45.1823C1.50072 39.2541 -0.73017 31.7003 0.211015 24.1225C1.20859 16.0908 5.67214 8.93116 12.442 4.50382C15.0387 2.80564 17.9111 1.55566 20.9212 0.81393C23.0443 0.290788 24.7393 0.0764355 27.1022 0.0323061L28.7663 0L28.7824 4.93074L28.7942 9.86144L29.3444 9.5227C30.5385 8.78726 32.1982 8.11473 32.9558 8.05938C33.2627 8.03515 33.3679 8.05531 33.6164 8.16799C34.505 8.57477 34.7943 9.57413 34.2579 10.3839C34.0442 10.7065 33.7925 10.8489 32.9484 11.1254C31.5707 11.5767 30.364 12.312 28.6566 13.7407C27.9576 14.3256 27.7579 14.4251 27.2811 14.426C26.805 14.4269 26.495 14.2746 25.9342 13.7634C25.076 12.9815 24.0696 12.3111 22.9619 11.7835C22.3924 11.5122 21.9549 11.3376 20.8088 10.9241C20.4869 10.8082 20.2331 10.5805 20.0439 10.239C19.903 9.98507 19.8808 9.88777 19.882 9.53186C19.8829 9.21532 19.9103 9.06646 20.0035 8.89187C20.2644 8.3991 20.7113 8.10274 21.2545 8.06228C21.5428 8.04209 21.6825 8.07041 22.3216 8.29162C23.2512 8.6126 24.4595 9.14874 25.1599 9.55088C25.4579 9.72207 25.7228 9.86217 25.7486 9.86217C25.7729 9.86217 25.7954 8.27591 25.7954 6.33717V2.81213L25.4239 2.84848C19.777 3.39318 14.9224 5.5256 10.7641 9.28796C8.26934 11.5453 6.13728 14.5488 4.78426 17.7122C1.89329 24.4713 2.10251 32.0124 5.36203 38.5354C6.65028 41.1136 8.17032 43.195 10.2387 45.2132C12.1525 47.0805 14.1782 48.5107 16.5791 49.6897C18.5842 50.6744 20.4943 51.3305 22.5683 51.747L23.1817 51.8702L23.1979 53.2554L23.214 54.6406L23.0617 54.6365C22.9782 54.6344 22.5628 54.5622 22.1392 54.4766L22.1368 54.4773ZM31.3615 48.9523C30.8838 48.8324 30.2774 48.4906 29.8658 48.1096C29.1256 47.4244 28.9777 46.801 29.3611 45.9827C29.8085 45.028 31.2327 44.1567 32.1665 44.2665C32.743 44.3343 33.0719 44.56 33.416 45.1249C33.8256 45.797 34.0011 46.65 33.8645 47.3042C33.7066 48.0608 33.3733 48.5083 32.7321 48.8251C32.3201 49.0286 31.842 49.073 31.3615 48.9523ZM21.8239 48.7072C20.9585 48.358 20.5319 47.7467 20.4748 46.7745C20.4316 46.0388 20.6419 45.3526 21.1279 44.6442C21.4587 44.162 22.1193 43.9474 22.7925 44.1035C23.6032 44.2916 24.5947 44.9875 24.9275 45.6023C25.1399 45.9948 25.2639 46.4727 25.2215 46.7368C25.1048 47.4666 24.2605 48.3037 23.2884 48.6536C22.8276 48.8196 22.1622 48.8437 21.8239 48.7072ZM26.8031 38.3658C26.4727 38.2519 26.4796 38.2568 25.281 37.1965C20.3013 32.7914 15.0153 29.7717 9.48882 28.1753C9.06468 28.053 8.62963 27.9072 8.52195 27.8515C8.06477 27.6157 7.75183 27.1012 7.74977 26.5818C7.74715 25.9733 8.00702 25.5237 8.5268 25.2365C9.08022 24.9309 9.66175 25.033 12.0953 25.863C17.1562 27.5894 22.2169 30.5709 26.744 34.4933L27.2797 34.9574L27.8995 34.4403C32.1784 30.8708 36.9952 28.0889 43.3201 25.5344C44.3827 25.1053 44.5715 25.0456 44.8657 25.0455C45.3091 25.0455 45.8001 25.2817 46.043 25.6119C46.5128 26.2506 46.4621 27.0125 45.9137 27.5518C45.6629 27.7989 45.5248 27.8728 44.6954 28.2069C38.2328 30.8089 33.8655 33.3353 29.5749 36.9539C29.0359 37.4084 28.4541 37.8986 28.2819 38.0431C27.7932 38.4533 27.3419 38.5518 26.8031 38.3658ZM26.8955 29.8351C26.604 29.7463 26.3686 29.584 25.6675 28.9883C23.0607 26.7728 20.4174 25.024 17.2946 23.449C15.6203 22.6044 14.3409 22.0479 12.5392 21.3804C11.2054 20.8862 11.0084 20.7653 10.7638 20.2913C10.3922 19.5714 10.7436 18.607 11.5015 18.2782C11.9763 18.0715 12.305 18.1054 13.278 18.4615C18.3569 20.3201 22.509 22.6233 26.4848 25.7875L27.2567 26.4018L27.7778 25.9687C28.553 25.3244 30.3428 23.9851 31.1876 23.4172C33.8134 21.6521 36.3531 20.3454 40.3717 18.692C41.0804 18.4005 41.7757 18.1483 41.9169 18.1315C42.4927 18.0633 43.1443 18.434 43.4086 18.9797C43.596 19.3665 43.5871 19.8613 43.3844 20.2723C43.2991 20.4455 43.14 20.6611 43.0306 20.7513C42.9211 20.8413 42.372 21.1042 41.8099 21.3352C39.7111 22.1978 38.6566 22.6694 37.184 23.4041C34.0026 24.9912 31.4397 26.7196 28.6831 29.1367C28.2631 29.505 27.9889 29.7009 27.7869 29.7769C27.4913 29.8884 27.1448 29.911 26.8955 29.8351ZM26.9359 22.1277C26.5866 22.0409 26.4317 21.9331 25.7856 21.3259C22.4673 18.2081 19.5916 16.5408 16.3082 15.8311C15.5824 15.674 15.4233 15.6066 15.1605 15.3439C14.6363 14.8198 14.5947 13.9245 15.0668 13.3286C15.2469 13.1013 15.6757 12.8629 16.0106 12.8038C16.2598 12.7597 17.1981 12.9342 18.1109 13.1942C21.0229 14.0242 23.7007 15.5436 26.5389 17.9763L27.2542 18.5894L27.9957 17.9366C30.4265 15.7966 32.9314 14.2844 35.5075 13.4017C36.1786 13.1716 37.4867 12.8422 37.9069 12.7973C38.7007 12.7125 39.453 13.325 39.5355 14.1234C39.5949 14.6964 39.3077 15.2679 38.8185 15.5525C38.6921 15.626 38.2916 15.7519 37.9284 15.8327C35.5129 16.3692 33.118 17.5966 30.8043 19.484C30.0362 20.1107 29.8867 20.2431 28.9041 21.1684C28.48 21.5677 28.0318 21.9461 27.908 22.0092C27.637 22.1473 27.2204 22.1984 26.9359 22.1277Z" fill="url(#paint0_linear_379_109)"/>
<defs>
<linearGradient id="paint0_linear_379_109" x1="-8.78373e-08" y1="27.5" x2="55" y2="27.5" gradientUnits="userSpaceOnUse">
<stop stop-color="#61D2C4"/>
<stop offset="1" stop-color="#29D890"/>
</linearGradient>
</defs>
</svg>
