<svg width="179" height="115" viewBox="0 0 179 115" fill="none" xmlns="http://www.w3.org/2000/svg">
<path d="M21.5365 76.9258L21.7187 77.4466L18.0729 86.8476L13.0208 99.6862H23.0989L20.6771 93.6185L24.3229 84.2175L35.9635 114.269H28.4635L25.7031 106.613H10.4167L7.29166 114.269H0L14.401 76.9258H21.5365Z" fill="#3E3E3E"/>
<path d="M65.8331 76.9258V114.269H59.0363L42.8904 89.7903V114.269H35.9634V76.9258H42.7342L58.6977 101.587V76.9258H65.8331Z" fill="#3E3E3E"/>
<path d="M93.3851 76.9258V83.9049H89.9997H83.1768V114.269H75.8591V83.9049H69.2184H65.833V76.9258H93.3851Z" fill="#3E3E3E"/>
<path d="M89.3853 76.9258L100.036 106.405L103.682 96.1185L96.703 76.9258H89.3853ZM115.713 76.9258L102.64 113.723L102.979 114.269H109.776L123.057 76.9258H115.713Z" fill="#3E3E3E"/>
<path d="M133.962 113.563C128.962 113.563 125.16 110.967 122.556 105.776L128.363 102.313C130.065 105.507 131.992 107.104 134.145 107.104C135.273 107.104 136.263 106.774 137.113 106.115C137.877 105.403 138.259 104.63 138.259 103.797C138.259 102.981 137.99 102.156 137.452 101.323C137.105 100.924 136.601 100.429 135.942 99.8385C135.282 99.2309 134.457 98.5104 133.468 97.6771C131.575 96.0972 130.004 94.7083 128.754 93.5104C127.521 92.2951 126.619 91.2621 126.046 90.4115C124.83 88.6754 124.223 86.974 124.223 85.3073C124.223 82.8073 125.16 80.6632 127.035 78.875C128.98 77.1042 131.289 76.2188 133.962 76.2188C135.803 76.2188 137.513 76.6614 139.093 77.5469C139.909 77.9462 140.751 78.5192 141.619 79.2657C142.487 80.0122 143.407 80.9236 144.379 82L139.249 86.4532C137.53 84.04 135.768 82.8333 133.962 82.8333C132.955 82.8333 132.244 83.0504 131.827 83.4844C131.271 83.9184 130.994 84.474 130.994 85.1511C130.994 85.6719 131.159 86.2101 131.488 86.7656C131.818 87.1128 132.391 87.6597 133.207 88.4062C134.041 89.1354 135.126 90.0816 136.462 91.2448C138.025 92.5469 139.214 93.5799 140.03 94.3438C140.568 94.8299 140.968 95.1771 141.228 95.3854C143.659 97.7292 144.874 100.42 144.874 103.458C144.874 106.444 143.876 108.875 141.879 110.75C139.9 112.625 137.261 113.563 133.962 113.563Z" fill="#3E3E3E"/>
<path d="M178.249 76V113.344H171.452L155.306 88.8646V113.344H148.379V76H155.15L171.113 100.661V76H178.249Z" fill="#3E3E3E"/>
<path d="M88.1308 62.9875L87.5478 62.9643L87.5388 62.0688C87.5343 61.5763 87.5298 59.1049 87.5253 56.5768L87.5163 51.9803L86.823 51.4199C83.4917 48.727 80.1425 46.5226 76.739 44.7832C74.5409 43.6598 72.6005 42.8448 70.377 42.1109C69.6474 41.87 69.5301 41.8108 69.2688 41.5495C68.1878 40.4687 68.9579 38.6463 70.495 38.6468C70.7189 38.6469 71.1476 38.7592 71.9242 39.0214C77.5448 40.9192 82.9762 43.9883 88.578 48.4322L89.2615 48.9745L89.87 48.5018C90.8542 47.7373 92.6303 46.4521 93.7685 45.6809C96.5699 43.7827 98.9241 42.484 102.863 40.6638C103.851 40.2073 105.217 39.5644 105.899 39.2351C106.979 38.7135 107.182 38.636 107.475 38.6338C107.954 38.63 108.31 38.7568 108.642 39.0491C109.34 39.6631 109.428 40.6892 108.846 41.4236C108.621 41.7085 107.401 42.3445 104.627 43.6237C100.38 45.5823 98.0885 46.8543 95.1615 48.877C94.0979 49.6121 92.2309 50.9903 91.3765 51.6712L90.9509 52.0102V55.9186V59.8269L91.4708 59.7853C93.8947 59.5957 96.2762 59.1184 98.501 58.3756C104.454 56.3881 109.628 52.4228 113.105 47.1835C116.873 41.5058 118.477 34.652 117.613 27.9253C116.171 16.6934 108.179 7.37992 97.3164 4.27215C96.3129 3.98495 94.3463 3.54865 94.0548 3.54841L93.9129 3.54828V1.93556V0.322898L94.2436 0.364527C96.0916 0.606866 98.9841 1.38725 101.066 2.2057C102.109 2.61592 104.186 3.61321 105.163 4.17337C110.656 7.32345 115.131 12.13 117.866 17.8165C122.814 28.1045 121.853 40.1596 115.337 49.526C113.124 52.708 110.155 55.6149 106.97 57.7195C105.747 58.527 104.835 59.0468 103.398 59.7543C99.8451 61.5035 96.3548 62.4914 92.4002 62.8672C91.3639 62.9657 89.1028 63.03 88.1308 62.9875ZM83.3567 62.4012C78.1018 61.339 73.3801 59.0705 69.2075 55.6033C68.2496 54.8073 66.1825 52.7361 65.3659 51.7542C59.719 44.9639 57.1636 36.3112 58.2417 27.6312C59.3844 18.4312 64.4972 10.2302 72.2518 5.15896C75.2262 3.21377 78.5164 1.78194 81.9643 0.932362C84.3962 0.333082 86.3378 0.0875504 89.0443 0.0370023L90.9505 0L90.9689 5.64794L90.9824 11.2959L91.6127 10.9079C92.9804 10.0654 94.8815 9.29514 95.7493 9.23173C96.1009 9.20398 96.2214 9.22708 96.506 9.35614C97.5239 9.82204 97.8553 10.9668 97.2408 11.8943C96.9961 12.2638 96.7078 12.4271 95.7409 12.7438C94.1628 13.2607 92.7805 14.1029 90.8249 15.7394C90.0242 16.4094 89.7954 16.5234 89.2493 16.5244C88.7039 16.5254 88.3488 16.3505 87.7064 15.7654C86.7234 14.8697 85.5707 14.1019 84.3018 13.4976C83.6494 13.1868 83.1483 12.9868 81.8355 12.5132C81.4668 12.38 81.1761 12.1196 80.9594 11.7284C80.798 11.4375 80.7725 11.3261 80.7739 10.9184C80.775 10.5558 80.8064 10.3852 80.9132 10.1853C81.212 9.62082 81.7238 9.2814 82.3461 9.23502C82.6764 9.21189 82.8363 9.24433 83.5684 9.49771C84.6332 9.86538 86.0173 10.4795 86.8195 10.9401C87.1609 11.1362 87.4643 11.2967 87.4939 11.2967C87.5216 11.2967 87.5475 9.47971 87.5475 7.25898V3.22126L87.1219 3.26289C80.6536 3.88682 75.0929 6.3294 70.3298 10.6391C67.4722 13.2247 65.03 16.6651 63.4802 20.2887C60.1687 28.0309 60.4083 36.6688 64.142 44.1407C65.6176 47.0938 67.3587 49.4779 69.728 51.7897C71.9202 53.9287 74.2404 55.5669 76.9906 56.9174C79.2873 58.0452 81.4753 58.7968 83.851 59.274L84.5536 59.4151L84.5721 61.0017L84.5906 62.5884L84.4162 62.584C84.3205 62.5816 83.8447 62.4994 83.3594 62.4009L83.3567 62.4012ZM93.9231 56.0726C93.376 55.9353 92.6813 55.5437 92.2099 55.1073C91.3621 54.3225 91.1926 53.6084 91.6318 52.6711C92.1443 51.5775 93.7757 50.5795 94.8453 50.7052C95.5056 50.7829 95.8824 51.0414 96.2765 51.6884C96.7457 52.4583 96.9467 53.4354 96.7902 54.1847C96.6093 55.0514 96.2276 55.564 95.4931 55.9269C95.0212 56.16 94.4736 56.2109 93.9231 56.0726ZM82.9982 55.7919C82.007 55.3918 81.5184 54.6917 81.4529 53.5781C81.4035 52.7353 81.6444 51.9493 82.2011 51.1379C82.5799 50.5855 83.3366 50.3398 84.1077 50.5186C85.0364 50.7341 86.1721 51.5311 86.5533 52.2354C86.7966 52.6849 86.9386 53.2323 86.8901 53.5349C86.7564 54.3708 85.7893 55.3297 84.6758 55.7305C84.148 55.9205 83.3858 55.9482 82.9982 55.7919ZM88.7017 43.9463C88.3233 43.8154 88.3312 43.8214 86.9582 42.6069C81.2543 37.561 75.1993 34.1021 68.869 32.2735C68.3832 32.1334 67.8848 31.9664 67.7615 31.9026C67.2378 31.6325 66.8794 31.0432 66.877 30.4483C66.874 29.7512 67.1717 29.2362 67.7671 28.9073C68.401 28.5572 69.0671 28.6742 71.8546 29.6249C77.6517 31.6024 83.4485 35.0175 88.6341 39.5104L89.2477 40.0421L89.9576 39.4498C94.8589 35.361 100.376 32.1745 107.621 29.2485C108.838 28.757 109.055 28.6885 109.392 28.6885C109.9 28.6885 110.462 28.959 110.74 29.3373C111.278 30.0688 111.22 30.9415 110.592 31.5594C110.305 31.8424 110.147 31.927 109.197 32.3097C101.794 35.2902 96.7914 38.1841 91.8767 42.3289C91.2593 42.8496 90.5928 43.411 90.3956 43.5766C89.8359 44.0465 89.3189 44.1594 88.7017 43.9463ZM88.8076 34.1748C88.4736 34.073 88.204 33.8871 87.401 33.2048C84.415 30.667 81.3872 28.6639 77.8102 26.8597C75.8923 25.8924 74.4268 25.2549 72.3631 24.4902C70.8353 23.9242 70.6096 23.7857 70.3294 23.2427C69.9038 22.4182 70.3063 21.3135 71.1744 20.9369C71.7183 20.7001 72.0949 20.7389 73.2094 21.1468C79.0271 23.2758 83.7831 25.914 88.3372 29.5384L89.2213 30.2421L89.8183 29.746C90.7062 29.008 92.7563 27.4739 93.724 26.8234C96.7317 24.8015 99.6408 23.3047 104.244 21.4109C105.056 21.077 105.852 20.788 106.014 20.7688C106.673 20.6907 107.42 21.1152 107.723 21.7405C107.937 22.1835 107.927 22.7503 107.695 23.221C107.597 23.4194 107.415 23.6664 107.29 23.7696C107.164 23.8728 106.535 24.1738 105.891 24.4384C103.487 25.4266 102.279 25.9668 100.593 26.8083C96.9485 28.6263 94.0127 30.6061 90.8552 33.3748C90.3741 33.7966 90.06 34.021 89.8287 34.1081C89.4901 34.2357 89.0932 34.2617 88.8076 34.1748ZM88.8539 25.3463C88.4538 25.2473 88.2764 25.1234 87.5362 24.4279C83.7353 20.8566 80.4413 18.9468 76.6804 18.1338C75.8489 17.9539 75.6667 17.8767 75.3656 17.5757C74.7652 16.9755 74.7175 15.9499 75.2584 15.2673C75.4647 15.0069 75.9558 14.7339 76.3395 14.6661C76.6249 14.6157 77.6997 14.8155 78.7452 15.1133C82.0808 16.0641 85.1481 17.8045 88.3991 20.591L89.2185 21.2932L90.0678 20.5456C92.8521 18.0943 95.7214 16.3621 98.6722 15.351C99.441 15.0874 100.939 14.7102 101.421 14.6587C102.33 14.5616 103.192 15.2632 103.286 16.1778C103.354 16.8341 103.025 17.4888 102.465 17.8147C102.32 17.8988 101.861 18.0431 101.445 18.1356C98.6784 18.7501 95.9352 20.1561 93.285 22.3181C92.4051 23.0358 92.2339 23.1876 91.1083 24.2474C90.6226 24.7048 90.1091 25.1382 89.9673 25.2105C89.6569 25.3687 89.1797 25.4272 88.8539 25.3463Z" fill="#3E3E3E"/>
</svg>
